<?xml version="1.0" encoding="UTF-8" standalone="no"?><!DOCTYPE svg PUBLIC "-//W3C//DTD SVG 1.1//EN" "http://www.w3.org/Graphics/SVG/1.1/DTD/svg11.dtd"><svg width="100%" height="100%" viewBox="0 0 256 256" version="1.1" xmlns="http://www.w3.org/2000/svg" xmlns:xlink="http://www.w3.org/1999/xlink" xml:space="preserve" style="fill-rule:evenodd;clip-rule:evenodd;stroke-linejoin:round;stroke-miterlimit:1.41421;"><rect id="Background" x="0" y="0" width="256" height="256" style="fill:#52a54f;"/><g><path d="M114.101,150.097L150.101,150.097L150.101,114.097L168.101,114.097L168.101,150.097L204.101,150.097L204.101,168.097L168.101,168.097L168.101,204.097L150.101,204.097L150.101,168.097L114.101,168.097L114.101,150.097Z" style="fill:#fff;"/><path d="M135.101,203.768C132.764,203.986 130.397,204.097 128.004,204.097C86.032,204.097 51.9,169.956 51.9,128C51.9,86.044 86.032,51.903 128.004,51.903C169.96,51.903 204.101,86.044 204.101,128C204.101,130.393 203.989,132.76 203.772,135.097L192.52,135.097C192.776,132.766 192.908,130.398 192.908,128L192.907,127.665C192.763,99.235 174.227,75.079 148.613,66.473C147.02,68.407 145.839,70.27 145.95,71.514C147.686,88.882 159.529,75.85 161.819,78.402C168.481,85.779 154.133,89.238 152.957,99.097L135.101,99.097L135.101,135.097L119.617,135.097C123.802,132.528 128.241,131.102 129.78,127.009C138.483,103.927 111.176,102.611 107.458,101.295C103.748,99.995 97.431,99.947 95.037,100.74C92.643,101.517 87.855,97.506 87.855,94.097C87.855,90.689 97.335,83.912 100.276,79.203C103.193,74.495 105.524,75.176 110.946,70.27C113.434,67.995 117.532,66.766 119.086,63.738C95.417,67.02 75.783,83.087 67.436,104.735C72.216,105.234 83.678,105.369 85.112,109.412C86.579,113.478 80.055,117.695 80.055,126.161C80.055,135.554 92.088,135.443 92.088,142.506C92.088,149.577 94.688,157.828 94.688,160.182C94.688,161.214 96.618,164.291 99.1,167.42L99.1,183.097L123.561,183.097C120.747,183.87 118.269,184.603 115.416,184.732C111.881,184.866 111.485,187.53 107.585,189.591C114.005,191.723 120.87,192.904 127.996,192.904C130.396,192.904 132.767,192.773 135.101,192.516L135.101,203.768Z" style="fill:#fff;"/></g></svg>